<svg width="100" height="100" viewBox="0 0 100 100" fill="none" xmlns="http://www.w3.org/2000/svg">
<path d="M17 17C17 12.5817 20.5817 9 25 9H60V32H17V17Z" fill="#B4C0CF" fill-opacity="0.4"/>
<path d="M60 9L84 32H60V9Z" fill="#6682A3" fill-opacity="0.43"/>
<path fill-rule="evenodd" clip-rule="evenodd" d="M84 80.9998V32H17V80.9998C17 85.4181 20.5817 88.9998 25 88.9998H76C80.4183 88.9998 84 85.4181 84 80.9998ZM35.5 65C37.9853 65 40 62.9853 40 60.5C40 58.0147 37.9853 56 35.5 56C33.0147 56 31 58.0147 31 60.5C31 62.9853 33.0147 65 35.5 65ZM50.5 65C52.9853 65 55 62.9853 55 60.5C55 58.0147 52.9853 56 50.5 56C48.0147 56 46 58.0147 46 60.5C46 62.9853 48.0147 65 50.5 65ZM70 60.5C70 62.9853 67.9853 65 65.5 65C63.0147 65 61 62.9853 61 60.5C61 58.0147 63.0147 56 65.5 56C67.9853 56 70 58.0147 70 60.5Z" fill="#8399B5" fill-opacity="0.4"/>
<path fill-rule="evenodd" clip-rule="evenodd" d="M40 60.5C40 62.9853 37.9853 65 35.5 65C33.0147 65 31 62.9853 31 60.5C31 58.0147 33.0147 56 35.5 56C37.9853 56 40 58.0147 40 60.5ZM55 60.5C55 62.9853 52.9853 65 50.5 65C48.0147 65 46 62.9853 46 60.5C46 58.0147 48.0147 56 50.5 56C52.9853 56 55 58.0147 55 60.5ZM65.5 65C67.9853 65 70 62.9853 70 60.5C70 58.0147 67.9853 56 65.5 56C63.0147 56 61 58.0147 61 60.5C61 62.9853 63.0147 65 65.5 65Z" fill="white" fill-opacity="0.4"/>
</svg>
